<svg xmlns="http://www.w3.org/2000/svg" xmlns:xlink="http://www.w3.org/1999/xlink" viewBox="0 0 462.74 327.84"><defs><style>.cls-1,.cls-5,.cls-9{fill:none;}.cls-2{isolation:isolate;}.cls-3{clip-path:url(#clip-path);}.cls-4,.cls-6,.cls-7{fill:#231f20;}.cls-5,.cls-9{stroke:#231f20;stroke-linecap:round;stroke-width:6.49px;}.cls-5{stroke-linejoin:round;}.cls-6,.cls-7{stroke:#ed1f24;}.cls-6,.cls-7,.cls-9{stroke-miterlimit:10;}.cls-6{stroke-width:0.32px;}.cls-7{stroke-width:0.16px;}.cls-8{fill:#ee1b24;}.cls-10,.cls-11,.cls-12,.cls-13,.cls-14,.cls-15,.cls-16,.cls-17,.cls-18,.cls-19,.cls-20{mix-blend-mode:multiply;}.cls-10{fill:url(#radial-gradient);}.cls-11{fill:url(#radial-gradient-2);}.cls-12{fill:url(#radial-gradient-3);}.cls-13{fill:url(#radial-gradient-4);}.cls-14{fill:url(#radial-gradient-5);}.cls-15{fill:url(#radial-gradient-6);}.cls-16{fill:url(#radial-gradient-7);}.cls-17{fill:url(#radial-gradient-8);}.cls-18{fill:url(#radial-gradient-9);}.cls-19{fill:url(#radial-gradient-10);}.cls-20{opacity:0.6;fill:url(#radial-gradient-11);}</style><clipPath id="clip-path" transform="translate(-136.86 -13.22)"><rect class="cls-1" width="600" height="350"/></clipPath><radialGradient id="radial-gradient" cx="430.28" cy="247.5" r="32.46" gradientUnits="userSpaceOnUse"><stop offset="0.56" stop-color="#e6e7e8"/><stop offset="0.62" stop-color="#ebeced"/><stop offset="0.83" stop-color="#fafafa"/><stop offset="1" stop-color="#fff"/></radialGradient><radialGradient id="radial-gradient-2" cx="317.71" cy="99.21" r="32.46" xlink:href="#radial-gradient"/><radialGradient id="radial-gradient-3" cx="312.83" cy="22.2" r="22.2" xlink:href="#radial-gradient"/><radialGradient id="radial-gradient-4" cx="224.28" cy="290.95" r="27.32" xlink:href="#radial-gradient"/><radialGradient id="radial-gradient-5" cx="385.44" cy="47.98" r="36.83" xlink:href="#radial-gradient"/><radialGradient id="radial-gradient-6" cx="13.65" cy="178.64" r="13.65" xlink:href="#radial-gradient"/><radialGradient id="radial-gradient-7" cx="292.68" cy="255.72" r="65.81" xlink:href="#radial-gradient"/><radialGradient id="radial-gradient-8" cx="220.86" cy="175.26" r="15.65" xlink:href="#radial-gradient"/><radialGradient id="radial-gradient-9" cx="134.32" cy="267.48" r="11.75" xlink:href="#radial-gradient"/><radialGradient id="radial-gradient-10" cx="172.27" cy="45.52" r="15.6" xlink:href="#radial-gradient"/><radialGradient id="radial-gradient-11" cx="34.01" cy="309.25" r="18.59" xlink:href="#radial-gradient"/></defs><title>corona-banner</title><g class="cls-2"><g id="Layer_1" data-name="Layer 1"><g class="cls-3"><path class="cls-4" d="M478.24,132.95a174,174,0,0,0-22.69-37,115.18,115.18,0,0,0-15-15.39,67.57,67.57,0,0,0-8.62-6.1,47.73,47.73,0,0,0-9.39-4.33,24.81,24.81,0,0,0-9.64-1.32A17.64,17.64,0,0,0,404.24,72a25.88,25.88,0,0,0-6.61,7.21,49.8,49.8,0,0,0-4.56,9.32A102.1,102.1,0,0,0,388,109.38q-.79,5.36-1.19,10.79c-.27,3.59-.46,7.28-.46,10.79h0v.22a3.2,3.2,0,0,1-6,1.45,56.34,56.34,0,0,1-4.91-14.93c-1-5-1.68-9.95-2.21-14.91-1-9.93-1.53-19.86-1.79-29.77s-.25-19.81-.12-29.71.46-19.78.67-29.65a.16.16,0,0,1,.16-.16.16.16,0,0,1,.16.16c.3,9.89.48,19.77.87,29.64S374,63,374.79,72.85s1.76,19.63,3.29,29.29c.77,4.83,1.68,9.62,2.88,14.28a51,51,0,0,0,4.93,12.93l-6,1.67h0c0-3.88.19-7.58.48-11.35s.69-7.5,1.24-11.23A108.42,108.42,0,0,1,387,86.28a56.19,56.19,0,0,1,5.17-10.54,32.3,32.3,0,0,1,8.3-9l1.3-.91,1.41-.77c.48-.24.93-.53,1.43-.73l1.5-.59a18.75,18.75,0,0,1,3.08-.9,18.3,18.3,0,0,1,3.15-.5A31.23,31.23,0,0,1,424.52,64a54.1,54.1,0,0,1,10.69,4.92,74,74,0,0,1,9.45,6.69,121.48,121.48,0,0,1,15.9,16.28,180.42,180.42,0,0,1,23.56,38.37,3.24,3.24,0,1,1-5.88,2.73Z" transform="translate(-136.86 -13.22)"/><path class="cls-5" d="M496.79,175.8c-2.42-9.25-5.08-17.74-7.91-25.51" transform="translate(-136.86 -13.22)"/><path class="cls-5" d="M504,210.67q-2-12.75-4.59-24.05" transform="translate(-136.86 -13.22)"/><path class="cls-4" d="M492.65,333.74c-6.14,0-13.27-3.94-21.28-11.78l-.27-.3c-.18-.22-18.51-22.73-45.54-18.1-8.48,1.45-16-.36-22.24-5.38-19.83-15.86-22.14-60.67-23.13-79.8l0-.55c-.9-17.52-.7-34.7-.39-52.22.09-4.93-4.19-9.68-7.93-13.26-2.88-2.76-8.85-8.5-14-8.86h-.23c-5.16.36-11.13,6.1-14,8.86-3.74,3.59-8,8.34-7.93,13.26.31,17.52.52,34.7-.39,52.22l0,.55c-.49,9.48-1.31,25.35-4.37,40.7-3.8,19-10.11,32.19-18.75,39.1-6.28,5-13.76,6.84-22.24,5.38-27.14-4.64-45.36,17.87-45.54,18.1l-.27.3c-10.53,10.31-19.53,13.88-26.77,10.61-16.66-7.52-15-49.12-14.79-54.13.79-40.68,5.63-77.18,14.37-108.48l6.25,1.74c-8.6,30.79-13.35,66.76-14.13,106.91v.1c-.84,16.24,1.4,43.61,11,47.93,5.63,2.54,13.65-3.57,19.43-9.2,2-2.43,21.68-25.42,51.58-20.29,6.66,1.14,12.25-.19,17.09-4.06,17.55-14,19.76-56.81,20.7-75.07l0-.56c.89-17.31.69-34.36.38-51.77-.13-7.44,5.23-13.56,9.92-18.06,5.26-5.05,11.55-10.27,18.21-10.67h.82c6.67.39,12.95,5.61,18.21,10.67,4.69,4.5,10.05,10.62,9.92,18.06-.31,17.41-.51,34.46.38,51.77l0,.56c.94,18.26,3.15,61,20.7,75.07,4.84,3.87,10.43,5.2,17.09,4.06C454.37,292,474.06,315,476,317.45c5.78,5.64,13.8,11.74,19.43,9.2,9.58-4.32,11.82-31.7,11-47.93v-.1c-.32-16.34-1.3-32.16-2.93-47l6.45-.71c1.64,15,2.64,31,3,47.54.26,5,1.87,46.61-14.79,54.13A13.22,13.22,0,0,1,492.65,333.74Z" transform="translate(-136.86 -13.22)"/><path class="cls-6" d="M458.94,173.93a3.66,3.66,0,0,0-1.29-2.79,21.23,21.23,0,0,0-.82-3.12A3.66,3.66,0,0,0,454,162.5a21.34,21.34,0,0,0-2.06-2.44,3.66,3.66,0,0,0-4.33-3.39,21,21,0,0,0-2.79-1.39,3.67,3.67,0,0,0-6.4-1.51c-.55,0-1.1-.07-1.65-.07a21.26,21.26,0,0,0-4.11.4,2.61,2.61,0,0,0-4,1.19,21.29,21.29,0,0,0-5.27,3.12,2.86,2.86,0,0,0-3.66,3.78,21.63,21.63,0,0,0-1.24,1.83,2.86,2.86,0,0,0-2.23,5.17,21.06,21.06,0,0,0-.61,2.94,2.86,2.86,0,0,0,0,5.68,21.09,21.09,0,0,0,1.53,5.55,2.86,2.86,0,0,0,2.33,4.53l.31,0a21.3,21.3,0,0,0,3.08,3.26,2.86,2.86,0,0,0,4.32,2.87,21,21,0,0,0,3.58,1.4,2.86,2.86,0,0,0,4.3.78c.54,0,1.08.07,1.63.07a21.26,21.26,0,0,0,3-.21,2.86,2.86,0,0,0,4.73-1.24,21.28,21.28,0,0,0,5.6-3.24,3.67,3.67,0,0,0,3.62-3.67s0,0,0,0a21.24,21.24,0,0,0,2.36-3.92,2.85,2.85,0,0,0,1.34-3.78,21.18,21.18,0,0,0,.58-3.7A3.65,3.65,0,0,0,458.94,173.93Z" transform="translate(-136.86 -13.22)"/><path class="cls-6" d="M430.51,155.5a8.68,8.68,0,0,0,2.71-3.94A11.78,11.78,0,0,0,434,145c-.46-2-1.76-3.6-2.67-5.37-.4-.79-.72-1.46-1-2-1.05-2.44-.78-2.92-.78-2.92a6.46,6.46,0,0,1,12.92,0s.27.48-.78,2.92c-.24.56-.56,1.23-1,2-.9,1.77-2.2,3.41-2.67,5.37a11.78,11.78,0,0,0,.76,6.55,8.68,8.68,0,0,0,2.71,3.94" transform="translate(-136.86 -13.22)"/><path class="cls-6" d="M421.1,186.71a8.68,8.68,0,0,0-4.39-1.88,11.78,11.78,0,0,0-6.57.54c-1.83.84-3.19,2.44-4.74,3.67-.7.55-1.29,1-1.79,1.34-2.18,1.51-2.71,1.34-2.71,1.34a6.46,6.46,0,1,1-2.54-12.67s.41-.36,3,.19c.6.13,1.32.3,2.17.55,1.91.54,3.78,1.49,5.79,1.56a11.79,11.79,0,0,0,6.27-2,8.67,8.67,0,0,0,3.33-3.43" transform="translate(-136.86 -13.22)"/><path class="cls-6" d="M449.3,185.31a7.38,7.38,0,0,0-.25,4,10,10,0,0,0,2.31,5.09c1.19,1.22,2.86,1.85,4.28,2.74.64.4,1.16.75,1.58,1,1.83,1.31,1.84,1.78,1.84,1.78a5.48,5.48,0,1,1-9.39,5.65s-.41-.23-.71-2.46c-.07-.52-.13-1.14-.18-1.89-.11-1.68.11-3.44-.41-5.07a10,10,0,0,0-3.41-4.42,7.36,7.36,0,0,0-3.69-1.68" transform="translate(-136.86 -13.22)"/><path class="cls-6" d="M456.58,165.56a5.61,5.61,0,0,0,2.65,1.59,7.61,7.61,0,0,0,4.25.23,16.08,16.08,0,0,0,3.35-1.93c.49-.29.91-.52,1.26-.7,1.53-.78,1.85-.62,1.85-.62a4.17,4.17,0,0,1,.52,8.32s-.3.2-1.91-.38c-.37-.13-.82-.31-1.34-.54a16.09,16.09,0,0,0-3.57-1.5,7.6,7.6,0,0,0-4.19.75,5.59,5.59,0,0,0-2.43,1.9" transform="translate(-136.86 -13.22)"/><path class="cls-6" d="M441.71,194.58a5.61,5.61,0,0,0-1.86,2.46,7.62,7.62,0,0,0-.67,4.2,16.15,16.15,0,0,0,1.57,3.54c.24.52.42,1,.56,1.33.61,1.6.42,1.9.42,1.9a4.17,4.17,0,0,1-8.33-.36s-.16-.32.58-1.86c.17-.36.39-.78.68-1.28a16.07,16.07,0,0,0,1.87-3.39,7.59,7.59,0,0,0-.3-4.24,5.62,5.62,0,0,0-1.63-2.62" transform="translate(-136.86 -13.22)"/><path class="cls-6" d="M425.6,190.22a5,5,0,0,0-2.68.64,6.78,6.78,0,0,0-2.85,2.5,14.39,14.39,0,0,0-.94,3.32c-.13.49-.26.9-.37,1.23-.49,1.45-.79,1.54-.79,1.54a3.72,3.72,0,0,1-5.51-5s.07-.31,1.46-.94c.32-.15.71-.31,1.19-.49a14.35,14.35,0,0,0,3.21-1.26,6.79,6.79,0,0,0,2.2-3.09,5,5,0,0,0,.37-2.73" transform="translate(-136.86 -13.22)"/><path class="cls-6" d="M416.08,173.58a5,5,0,0,0-1.81-2.08,6.77,6.77,0,0,0-3.54-1.37,14.32,14.32,0,0,0-3.37.71c-.5.11-.92.19-1.26.25-1.51.23-1.74,0-1.74,0a3.72,3.72,0,0,1,1.86-7.2s.3-.08,1.51.85c.28.22.61.49,1,.83a14.49,14.49,0,0,0,2.61,2.26,6.79,6.79,0,0,0,3.76.52,5,5,0,0,0,2.58-.94" transform="translate(-136.86 -13.22)"/><path class="cls-6" d="M423.3,160.24a6.56,6.56,0,0,0-.2-3.6,8.88,8.88,0,0,0-2.57-4.26,18.81,18.81,0,0,0-4.07-2c-.61-.29-1.1-.54-1.51-.76-1.75-1-1.81-1.38-1.81-1.38a4.87,4.87,0,0,1,7.71-6s.38.16.88,2.1c.11.45.23,1,.36,1.65a18.81,18.81,0,0,0,.88,4.43,8.91,8.91,0,0,0,3.47,3.56,6.56,6.56,0,0,0,3.43,1.1" transform="translate(-136.86 -13.22)"/><path class="cls-6" d="M448.23,158.21a5.07,5.07,0,0,0,2.8,0,6.9,6.9,0,0,0,3.42-1.78,14.64,14.64,0,0,0,1.73-3.05c.25-.46.47-.83.66-1.13.84-1.31,1.16-1.33,1.16-1.33a3.78,3.78,0,0,1,4.24,6.27s-.14.29-1.67.58c-.35.07-.78.13-1.3.2a14.57,14.57,0,0,0-3.48.46,6.9,6.9,0,0,0-2.93,2.51,5.09,5.09,0,0,0-1,2.6" transform="translate(-136.86 -13.22)"/><path class="cls-6" d="M443.8,155.21a3.34,3.34,0,0,0,1.57-1,4.53,4.53,0,0,0,1.3-2.18,9.6,9.6,0,0,0-.09-2.3c0-.34,0-.63,0-.86,0-1,.19-1.15.19-1.15a2.49,2.49,0,1,1,4.53,2s0,.21-.73.9c-.17.16-.39.34-.66.56a9.51,9.51,0,0,0-1.78,1.46,4.53,4.53,0,0,0-.77,2.42,3.35,3.35,0,0,0,.33,1.81" transform="translate(-136.86 -13.22)"/><path class="cls-6" d="M418.44,164.75a3.35,3.35,0,0,0-.58-1.75,4.53,4.53,0,0,0-1.83-1.76,9.65,9.65,0,0,0-2.26-.43c-.34-.06-.62-.12-.84-.18-1-.25-1.07-.44-1.07-.44a2.49,2.49,0,0,1,3-4s.21,0,.71.92c.12.21.25.46.4.77a9.6,9.6,0,0,0,1,2.07,4.54,4.54,0,0,0,2.18,1.29,3.34,3.34,0,0,0,1.84.09" transform="translate(-136.86 -13.22)"/><path class="cls-6" d="M429.56,158.06a3.34,3.34,0,0,0,.48-1.77,4.52,4.52,0,0,0-.55-2.48,9.66,9.66,0,0,0-1.65-1.61c-.25-.24-.45-.44-.61-.61-.69-.75-.65-1-.65-1a2.49,2.49,0,0,1,4.69-1.64s.16.14.09,1.16c0,.23,0,.52-.09.86a9.69,9.69,0,0,0-.29,2.29,4.55,4.55,0,0,0,1.1,2.28,3.35,3.35,0,0,0,1.48,1.09" transform="translate(-136.86 -13.22)"/><path class="cls-6" d="M430.57,193.9a3.34,3.34,0,0,0-1.32,1.28,4.53,4.53,0,0,0-.78,2.41,9.56,9.56,0,0,0,.6,2.23c.09.33.16.61.21.84.21,1,.07,1.16.07,1.16a2.49,2.49,0,1,1-4.87-1s-.07-.2.51-1c.13-.19.3-.42.52-.69a9.58,9.58,0,0,0,1.41-1.82,4.53,4.53,0,0,0,.21-2.53,3.33,3.33,0,0,0-.72-1.69" transform="translate(-136.86 -13.22)"/><path class="cls-6" d="M454,183.43a4.12,4.12,0,0,0,1,2,5.59,5.59,0,0,0,2.55,1.8,11.87,11.87,0,0,0,2.84.11c.42,0,.77,0,1.06.06,1.26.11,1.39.34,1.39.34a3.07,3.07,0,1,1-2.93,5.38s-.26,0-1-1c-.18-.23-.39-.51-.62-.86a11.84,11.84,0,0,0-1.63-2.33,5.59,5.59,0,0,0-2.9-1.17,4.12,4.12,0,0,0-2.26.23" transform="translate(-136.86 -13.22)"/><path class="cls-6" d="M456.68,177.16a3,3,0,0,0,1.19,1.14,4.06,4.06,0,0,0,2.18.62,8.56,8.56,0,0,0,2-.61l.74-.21c.89-.22,1-.1,1-.1a2.22,2.22,0,0,1-.72,4.39s-.18.07-.95-.43c-.18-.11-.39-.26-.63-.44a8.56,8.56,0,0,0-1.68-1.2,4.06,4.06,0,0,0-2.27-.11,3,3,0,0,0-1.49.7" transform="translate(-136.86 -13.22)"/><path class="cls-7" d="M483.46,230.44a1.53,1.53,0,0,0-.54-1.16,8.92,8.92,0,0,0-.34-1.3,1.51,1.51,0,0,0,.21-.77,1.53,1.53,0,0,0-1.41-1.52,8.91,8.91,0,0,0-.86-1,1.53,1.53,0,0,0-1.52-1.44l-.28,0a8.75,8.75,0,0,0-1.16-.58,1.53,1.53,0,0,0-2.67-.63l-.69,0a9,9,0,0,0-1.71.17,1.09,1.09,0,0,0-1.66.5,8.92,8.92,0,0,0-2.19,1.3,1.17,1.17,0,0,0-.42-.08,1.19,1.19,0,0,0-1.19,1.19,1.2,1.2,0,0,0,.09.46,9,9,0,0,0-.51.76,1.19,1.19,0,0,0-.93,2.15,8.88,8.88,0,0,0-.25,1.22,1.19,1.19,0,0,0,0,2.37,8.79,8.79,0,0,0,.64,2.31,1.19,1.19,0,0,0,1,1.89h.13a8.78,8.78,0,0,0,1.28,1.36,1.11,1.11,0,0,0,0,.18,1.19,1.19,0,0,0,1.81,1,8.75,8.75,0,0,0,1.49.58,1.19,1.19,0,0,0,1.79.32l.68,0a9,9,0,0,0,1.25-.09,1.19,1.19,0,0,0,2-.51,8.88,8.88,0,0,0,2.33-1.35,1.53,1.53,0,0,0,1.51-1.53v0a8.9,8.9,0,0,0,1-1.63,1.19,1.19,0,0,0,.56-1.57,9,9,0,0,0,.24-1.54A1.52,1.52,0,0,0,483.46,230.44Z" transform="translate(-136.86 -13.22)"/><path class="cls-7" d="M471.62,222.76a3.61,3.61,0,0,0,1.13-1.64,4.89,4.89,0,0,0,.32-2.73,10.32,10.32,0,0,0-1.11-2.24c-.17-.33-.3-.61-.4-.84-.44-1-.32-1.21-.32-1.21a2.69,2.69,0,1,1,5.38,0s.12.2-.32,1.21c-.1.24-.23.51-.4.84a10.46,10.46,0,0,0-1.11,2.24,4.9,4.9,0,0,0,.32,2.73,3.62,3.62,0,0,0,1.13,1.64" transform="translate(-136.86 -13.22)"/><path class="cls-7" d="M467.7,235.76a3.61,3.61,0,0,0-1.83-.78,4.91,4.91,0,0,0-2.74.23,10.43,10.43,0,0,0-2,1.53c-.29.23-.54.41-.75.56-.91.63-1.13.56-1.13.56a2.69,2.69,0,0,1-1.06-5.28s.17-.15,1.25.08c.25.05.55.13.91.23a10.46,10.46,0,0,0,2.41.65,4.92,4.92,0,0,0,2.61-.85,3.63,3.63,0,0,0,1.39-1.43" transform="translate(-136.86 -13.22)"/><path class="cls-7" d="M479.44,235.17a3.07,3.07,0,0,0-.1,1.68,4.16,4.16,0,0,0,1,2.12,8.82,8.82,0,0,0,1.78,1.14c.27.16.48.31.66.44.76.55.77.74.77.74a2.28,2.28,0,0,1-3.91,2.35s-.17-.09-.29-1c0-.21-.06-.48-.08-.79a8.81,8.81,0,0,0-.17-2.11,4.16,4.16,0,0,0-1.42-1.84,3.07,3.07,0,0,0-1.54-.7" transform="translate(-136.86 -13.22)"/><path class="cls-7" d="M482.06,227.08a2.35,2.35,0,0,0,1.1.66,3.18,3.18,0,0,0,1.77.09,6.71,6.71,0,0,0,1.4-.81l.53-.29c.64-.32.77-.26.77-.26a1.74,1.74,0,0,1,.22,3.47s-.12.08-.8-.16l-.56-.22a6.74,6.74,0,0,0-1.48-.63,3.16,3.16,0,0,0-1.74.31,2.33,2.33,0,0,0-1,.79" transform="translate(-136.86 -13.22)"/><path class="cls-7" d="M476.28,239a2.35,2.35,0,0,0-.77,1,3.17,3.17,0,0,0-.28,1.75,6.74,6.74,0,0,0,.65,1.47c.1.22.18.4.23.55.25.67.18.79.18.79a1.74,1.74,0,1,1-3.47-.15s-.07-.13.24-.77c.07-.15.16-.33.28-.53a6.72,6.72,0,0,0,.78-1.41A3.16,3.16,0,0,0,474,240a2.34,2.34,0,0,0-.68-1.09" transform="translate(-136.86 -13.22)"/><path class="cls-7" d="M469.58,237.22a2.08,2.08,0,0,0-1.11.27,2.82,2.82,0,0,0-1.19,1,6,6,0,0,0-.39,1.38c-.05.21-.11.37-.15.51-.21.6-.33.64-.33.64a1.55,1.55,0,0,1-2.29-2.08s0-.13.61-.39l.5-.2a5.92,5.92,0,0,0,1.34-.52,2.82,2.82,0,0,0,.92-1.29,2.08,2.08,0,0,0,.15-1.13" transform="translate(-136.86 -13.22)"/><path class="cls-7" d="M465.61,230.29a2.08,2.08,0,0,0-.75-.86,2.8,2.8,0,0,0-1.47-.57,6,6,0,0,0-1.4.29l-.53.1c-.63.1-.72,0-.72,0a1.55,1.55,0,1,1,.77-3s.13,0,.63.36l.41.34a6,6,0,0,0,1.08.94,2.82,2.82,0,0,0,1.56.22,2.08,2.08,0,0,0,1.08-.39" transform="translate(-136.86 -13.22)"/><path class="cls-7" d="M468.62,224.74a2.73,2.73,0,0,0-.09-1.5,3.7,3.7,0,0,0-1.07-1.78,7.94,7.94,0,0,0-1.69-.82l-.63-.32c-.73-.4-.75-.58-.75-.58a2,2,0,1,1,3.21-2.48s.16.07.37.87c0,.19.1.41.15.69a7.82,7.82,0,0,0,.37,1.85,3.72,3.72,0,0,0,1.45,1.48,2.73,2.73,0,0,0,1.43.46" transform="translate(-136.86 -13.22)"/><path class="cls-7" d="M479,223.89a2.11,2.11,0,0,0,1.17,0,2.87,2.87,0,0,0,1.43-.74,6.14,6.14,0,0,0,.72-1.27c.1-.19.2-.34.28-.47.35-.54.48-.55.48-.55a1.57,1.57,0,1,1,1.76,2.61s-.06.12-.7.24l-.54.08a6.1,6.1,0,0,0-1.45.19,2.86,2.86,0,0,0-1.22,1,2.12,2.12,0,0,0-.43,1.09" transform="translate(-136.86 -13.22)"/><path class="cls-7" d="M477.15,222.64a1.41,1.41,0,0,0,.65-.4,1.89,1.89,0,0,0,.54-.91,4.05,4.05,0,0,0,0-1c0-.14,0-.26,0-.36,0-.43.08-.48.08-.48a1,1,0,1,1,1.89.85s0,.09-.3.38l-.27.23a4,4,0,0,0-.74.61,1.87,1.87,0,0,0-.32,1,1.38,1.38,0,0,0,.14.75" transform="translate(-136.86 -13.22)"/><path class="cls-7" d="M466.59,226.62a1.38,1.38,0,0,0-.24-.73,1.88,1.88,0,0,0-.76-.73,4.09,4.09,0,0,0-.94-.18l-.35-.07c-.41-.1-.45-.18-.45-.18a1,1,0,0,1,1.25-1.65s.09,0,.3.38l.16.32a4,4,0,0,0,.43.86,1.9,1.9,0,0,0,.91.54,1.39,1.39,0,0,0,.76,0" transform="translate(-136.86 -13.22)"/><path class="cls-7" d="M471.22,223.83a1.38,1.38,0,0,0,.2-.74,1.87,1.87,0,0,0-.23-1,4,4,0,0,0-.69-.67l-.25-.25c-.29-.31-.27-.4-.27-.4a1,1,0,1,1,2-.68s.07.06,0,.48c0,.1,0,.21,0,.36a4,4,0,0,0-.12,1,1.89,1.89,0,0,0,.46,1,1.4,1.4,0,0,0,.62.45" transform="translate(-136.86 -13.22)"/><path class="cls-7" d="M471.64,238.75a1.39,1.39,0,0,0-.55.53,1.86,1.86,0,0,0-.33,1,4,4,0,0,0,.25.93c0,.14.07.25.09.35.09.42,0,.48,0,.48a1,1,0,0,1-2-.41s0-.08.21-.43l.22-.29a4.11,4.11,0,0,0,.59-.76,1.89,1.89,0,0,0,.09-1.05,1.38,1.38,0,0,0-.3-.71" transform="translate(-136.86 -13.22)"/><path class="cls-7" d="M481.41,234.39a1.71,1.71,0,0,0,.43.84,2.32,2.32,0,0,0,1.06.75,4.89,4.89,0,0,0,1.18,0l.44,0c.52,0,.58.14.58.14a1.28,1.28,0,1,1-1.22,2.24s-.11,0-.43-.41l-.26-.36a4.89,4.89,0,0,0-.68-1,2.35,2.35,0,0,0-1.21-.49,1.7,1.7,0,0,0-.94.1" transform="translate(-136.86 -13.22)"/><path class="cls-7" d="M482.52,231.78a1.24,1.24,0,0,0,.5.47,1.69,1.69,0,0,0,.91.26,3.61,3.61,0,0,0,.82-.25l.31-.09c.37-.09.43,0,.43,0a.93.93,0,0,1-.3,1.83s-.07,0-.39-.18l-.26-.18a3.51,3.51,0,0,0-.7-.5,1.7,1.7,0,0,0-.94,0,1.26,1.26,0,0,0-.62.29" transform="translate(-136.86 -13.22)"/><path class="cls-8" d="M421.49,217.26a1,1,0,0,0-.36-.78,5.88,5.88,0,0,0-.23-.87,1,1,0,0,0-.8-1.54,6.06,6.06,0,0,0-.58-.68,1,1,0,0,0-1-1l-.19,0a6,6,0,0,0-.78-.39,1,1,0,0,0-1.79-.42l-.46,0a6,6,0,0,0-1.14.11.73.73,0,0,0-1.11.33,5.94,5.94,0,0,0-1.47.87.8.8,0,0,0-1.08.75.79.79,0,0,0,.06.31,5.67,5.67,0,0,0-.34.51l-.18,0a.8.8,0,0,0-.44,1.46,5.94,5.94,0,0,0-.17.82.8.8,0,0,0,0,1.58,6,6,0,0,0,.42,1.55.79.79,0,0,0-.15.46.8.8,0,0,0,.8.8h.09a6,6,0,0,0,.86.91,1,1,0,0,0,0,.12.8.8,0,0,0,.8.8.79.79,0,0,0,.42-.12,5.87,5.87,0,0,0,1,.39.8.8,0,0,0,1.2.22l.45,0a6,6,0,0,0,.83-.06.8.8,0,0,0,1.32-.34,5.89,5.89,0,0,0,1.56-.9,1,1,0,0,0,1-1h0a5.81,5.81,0,0,0,.66-1.09.79.79,0,0,0,.37-1.05,5.89,5.89,0,0,0,.16-1A1,1,0,0,0,421.49,217.26Z" transform="translate(-136.86 -13.22)"/><path class="cls-8" d="M413.56,212.12a2.42,2.42,0,0,0,.75-1.1,3.28,3.28,0,0,0,.21-1.83,6.88,6.88,0,0,0-.74-1.5c-.11-.22-.2-.41-.27-.56-.29-.68-.22-.81-.22-.81a1.8,1.8,0,1,1,3.6,0s.08.13-.22.81c-.07.16-.16.34-.27.56a6.94,6.94,0,0,0-.74,1.5,3.29,3.29,0,0,0,.21,1.83,2.42,2.42,0,0,0,.75,1.1" transform="translate(-136.86 -13.22)"/><path class="cls-8" d="M410.94,220.82a2.42,2.42,0,0,0-1.23-.52,3.29,3.29,0,0,0-1.83.15,7,7,0,0,0-1.32,1l-.5.37c-.61.42-.75.37-.75.37a1.8,1.8,0,0,1-.71-3.53s.12-.1.84.05l.61.15a6.93,6.93,0,0,0,1.61.43,3.3,3.3,0,0,0,1.75-.57,2.44,2.44,0,0,0,.93-1" transform="translate(-136.86 -13.22)"/><path class="cls-8" d="M418.8,220.43a2.06,2.06,0,0,0-.07,1.13,2.78,2.78,0,0,0,.64,1.42,5.93,5.93,0,0,0,1.19.76l.44.29c.51.37.51.5.51.5a1.53,1.53,0,0,1-2.62,1.58s-.11-.06-.2-.69c0-.14,0-.32-.05-.53a5.9,5.9,0,0,0-.11-1.41,2.78,2.78,0,0,0-1-1.23,2,2,0,0,0-1-.47" transform="translate(-136.86 -13.22)"/><path class="cls-8" d="M420.83,214.92a1.56,1.56,0,0,0,.74.44,2.11,2.11,0,0,0,1.18.06,4.56,4.56,0,0,0,.94-.54l.35-.19c.43-.22.52-.17.52-.17a1.16,1.16,0,0,1,.14,2.32s-.08.05-.53-.11l-.37-.15a4.43,4.43,0,0,0-1-.42,2.12,2.12,0,0,0-1.17.21,1.57,1.57,0,0,0-.68.53" transform="translate(-136.86 -13.22)"/><path class="cls-8" d="M416.69,223a1.57,1.57,0,0,0-.52.69,2.13,2.13,0,0,0-.19,1.17,4.51,4.51,0,0,0,.44,1c.07.15.12.27.16.37.17.45.12.53.12.53a1.16,1.16,0,0,1-2.33-.1s0-.09.16-.52c0-.1.11-.22.19-.36a4.55,4.55,0,0,0,.52-.94,2.12,2.12,0,0,0-.08-1.18,1.55,1.55,0,0,0-.46-.73" transform="translate(-136.86 -13.22)"/><path class="cls-8" d="M412.19,221.8a1.38,1.38,0,0,0-.75.18,1.88,1.88,0,0,0-.79.7,4,4,0,0,0-.26.93c0,.14-.07.25-.1.34-.14.4-.22.43-.22.43a1,1,0,0,1-1.54-1.39s0-.09.41-.26l.33-.14a3.92,3.92,0,0,0,.9-.35,1.89,1.89,0,0,0,.61-.86,1.4,1.4,0,0,0,.1-.76" transform="translate(-136.86 -13.22)"/><path class="cls-8" d="M409.54,217.16a1.39,1.39,0,0,0-.5-.58,1.89,1.89,0,0,0-1-.38,4,4,0,0,0-.94.2l-.35.07c-.42.07-.48,0-.48,0a1,1,0,0,1,.52-2s.09,0,.42.24l.28.23a4,4,0,0,0,.73.63,1.88,1.88,0,0,0,1,.14,1.4,1.4,0,0,0,.72-.26" transform="translate(-136.86 -13.22)"/><path class="cls-8" d="M411.55,213.44a1.83,1.83,0,0,0-.06-1,2.48,2.48,0,0,0-.72-1.19,5.27,5.27,0,0,0-1.13-.55l-.42-.21c-.49-.27-.5-.38-.5-.38a1.36,1.36,0,1,1,2.15-1.66s.11,0,.25.58c0,.13.07.28.1.46a5.26,5.26,0,0,0,.25,1.24,2.47,2.47,0,0,0,1,1,1.82,1.82,0,0,0,1,.31" transform="translate(-136.86 -13.22)"/><path class="cls-8" d="M418.51,212.87a1.42,1.42,0,0,0,.78,0,1.92,1.92,0,0,0,1-.5,4.08,4.08,0,0,0,.48-.85l.19-.32c.23-.37.32-.37.32-.37a1.05,1.05,0,1,1,1.18,1.75s0,.08-.46.16l-.36.05a4,4,0,0,0-1,.13,1.92,1.92,0,0,0-.82.7,1.42,1.42,0,0,0-.29.73" transform="translate(-136.86 -13.22)"/><path class="cls-8" d="M417.27,212a.93.93,0,0,0,.44-.27,1.26,1.26,0,0,0,.36-.61,2.72,2.72,0,0,0,0-.64c0-.1,0-.17,0-.24,0-.29.05-.32.05-.32a.69.69,0,1,1,1.26.57s0,.06-.2.25l-.18.16a2.63,2.63,0,0,0-.5.41,1.26,1.26,0,0,0-.21.67.92.92,0,0,0,.09.5" transform="translate(-136.86 -13.22)"/><path class="cls-8" d="M410.2,214.7a.93.93,0,0,0-.16-.49,1.26,1.26,0,0,0-.51-.49,2.74,2.74,0,0,0-.63-.12l-.24,0c-.28-.07-.3-.12-.3-.12a.69.69,0,1,1,.84-1.1s.06,0,.2.26l.11.21a2.67,2.67,0,0,0,.29.58,1.26,1.26,0,0,0,.61.36.92.92,0,0,0,.51,0" transform="translate(-136.86 -13.22)"/><path class="cls-8" d="M413.3,212.83a.93.93,0,0,0,.13-.5,1.25,1.25,0,0,0-.15-.69,2.7,2.7,0,0,0-.46-.45l-.17-.17c-.19-.21-.18-.27-.18-.27a.69.69,0,1,1,1.31-.46s0,0,0,.32c0,.07,0,.15,0,.24a2.67,2.67,0,0,0-.08.64,1.26,1.26,0,0,0,.31.64.94.94,0,0,0,.41.3" transform="translate(-136.86 -13.22)"/><path class="cls-8" d="M413.58,222.83a.93.93,0,0,0-.37.36,1.27,1.27,0,0,0-.22.67,2.73,2.73,0,0,0,.17.62c0,.09,0,.17.06.23.06.28,0,.32,0,.32a.69.69,0,0,1-1.36-.27s0-.06.14-.29l.14-.19a2.65,2.65,0,0,0,.39-.51,1.27,1.27,0,0,0,.06-.7.93.93,0,0,0-.2-.47" transform="translate(-136.86 -13.22)"/><path class="cls-8" d="M420.12,219.91a1.15,1.15,0,0,0,.29.56,1.54,1.54,0,0,0,.71.5,3.31,3.31,0,0,0,.79,0l.3,0c.35,0,.39.09.39.09a.85.85,0,1,1-.82,1.5s-.07,0-.29-.28l-.17-.24a3.43,3.43,0,0,0-.46-.65,1.57,1.57,0,0,0-.81-.33,1.15,1.15,0,0,0-.63.07" transform="translate(-136.86 -13.22)"/><path class="cls-8" d="M420.86,218.16a.84.84,0,0,0,.33.32,1.13,1.13,0,0,0,.61.17,2.31,2.31,0,0,0,.55-.17l.21-.06c.25-.06.29,0,.29,0a.62.62,0,0,1-.2,1.22s0,0-.26-.12l-.18-.12a2.4,2.4,0,0,0-.47-.34,1.12,1.12,0,0,0-.63,0,.84.84,0,0,0-.42.19" transform="translate(-136.86 -13.22)"/><circle class="cls-4" cx="358.86" cy="100.97" r="5.84"/><circle class="cls-8" cx="280.41" cy="108.48" r="7.51"/><circle class="cls-4" cx="307.58" cy="212.19" r="7.51"/><circle class="cls-8" cx="344.32" cy="177.17" r="3.77"/><circle class="cls-8" cx="148.47" cy="91.25" r="3.77"/><circle class="cls-4" cx="63.6" cy="81.08" r="3.77"/><circle class="cls-4" cx="132.08" cy="114.79" r="2.9"/><circle class="cls-8" cx="99.22" cy="149.83" r="2.9"/><circle class="cls-8" cx="96.32" cy="65.23" r="2.9"/><circle class="cls-4" cx="311.7" cy="234.37" r="3.77"/><circle class="cls-4" cx="401.13" cy="127" r="3.77"/><circle class="cls-4" cx="420.73" cy="230.6" r="3.77"/><path class="cls-4" d="M518.79,134.83H474.17a3.24,3.24,0,0,1,0-6.49h44.62a3.24,3.24,0,0,1,0,6.49Z" transform="translate(-136.86 -13.22)"/><path class="cls-8" d="M522.3,235H499.73a3.24,3.24,0,0,1,0-6.49H522.3a3.24,3.24,0,0,1,0,6.49Z" transform="translate(-136.86 -13.22)"/><path class="cls-4" d="M547.59,235H538a3.24,3.24,0,0,1,0-6.49h9.6a3.24,3.24,0,0,1,0,6.49Z" transform="translate(-136.86 -13.22)"/><path class="cls-4" d="M498.48,153.53h-9.6a3.24,3.24,0,1,1,0-6.49h9.6a3.24,3.24,0,1,1,0,6.49Z" transform="translate(-136.86 -13.22)"/><path class="cls-4" d="M524.42,153.53h-9.6a3.24,3.24,0,1,1,0-6.49h9.6a3.24,3.24,0,0,1,0,6.49Z" transform="translate(-136.86 -13.22)"/><path class="cls-8" d="M478.72,150.56h-9.6a3.24,3.24,0,1,1,0-6.49h9.6a3.24,3.24,0,1,1,0,6.49Z" transform="translate(-136.86 -13.22)"/><path class="cls-4" d="M313.93,119.18h-9.6a3.24,3.24,0,1,1,0-6.48h9.6a3.24,3.24,0,1,1,0,6.48Z" transform="translate(-136.86 -13.22)"/><path class="cls-4" d="M220,90.2h-7.65a3.24,3.24,0,0,1,0-6.49H220a3.24,3.24,0,0,1,0,6.49Z" transform="translate(-136.86 -13.22)"/><line class="cls-9" x1="282.76" y1="224.68" x2="289.76" y2="224.68"/><path class="cls-4" d="M515.3,189.2H492.73a3.24,3.24,0,1,1,0-6.49H515.3a3.24,3.24,0,0,1,0,6.49Z" transform="translate(-136.86 -13.22)"/><path class="cls-8" d="M541.24,189.2h-9.6a3.24,3.24,0,0,1,0-6.49h9.6a3.24,3.24,0,1,1,0,6.49Z" transform="translate(-136.86 -13.22)"/><path class="cls-4" d="M593.13,189.2H557.59a3.24,3.24,0,0,1,0-6.49h35.54a3.24,3.24,0,1,1,0,6.49Z" transform="translate(-136.86 -13.22)"/><circle class="cls-4" cx="401.13" cy="195.09" r="8.08"/><circle class="cls-8" cx="420.73" cy="149.83" r="2.15"/><circle class="cls-4" cx="381.93" cy="201.48" r="2.15"/><circle class="cls-8" cx="394.78" cy="240.29" r="2.15"/><circle class="cls-8" cx="319.72" cy="255.72" r="2.15"/><path class="cls-8" d="M565.76,111.88a1,1,0,0,0-.36-.78,5.85,5.85,0,0,0-.23-.87,1,1,0,0,0-.8-1.54,5.84,5.84,0,0,0-.58-.68,1,1,0,0,0-1-1l-.19,0a6,6,0,0,0-.78-.39,1,1,0,0,0-1.79-.42l-.46,0a6,6,0,0,0-1.14.11.73.73,0,0,0-1.11.33,5.94,5.94,0,0,0-1.47.87.78.78,0,0,0-.28-.05.8.8,0,0,0-.8.8.79.79,0,0,0,.06.31,5.74,5.74,0,0,0-.34.51l-.18,0a.8.8,0,0,0-.44,1.46,5.83,5.83,0,0,0-.17.82.8.8,0,0,0,0,1.58,6,6,0,0,0,.43,1.55.79.79,0,0,0-.15.46.8.8,0,0,0,.8.8h.09a6,6,0,0,0,.86.91.8.8,0,0,0,1.21.8,5.86,5.86,0,0,0,1,.39.8.8,0,0,0,1.2.22l.45,0a6,6,0,0,0,.83-.06.8.8,0,0,0,1.32-.34,5.91,5.91,0,0,0,1.56-.9,1,1,0,0,0,1-1h0a5.86,5.86,0,0,0,.66-1.09.79.79,0,0,0,.37-1.05,6,6,0,0,0,.16-1A1,1,0,0,0,565.76,111.88Z" transform="translate(-136.86 -13.22)"/><path class="cls-8" d="M557.83,106.75a2.42,2.42,0,0,0,.76-1.1,3.28,3.28,0,0,0,.21-1.83,6.89,6.89,0,0,0-.74-1.5c-.11-.22-.2-.41-.27-.56-.29-.68-.22-.81-.22-.81a1.8,1.8,0,0,1,3.6,0s.08.13-.22.81c-.07.16-.16.34-.27.56a7,7,0,0,0-.74,1.5,3.28,3.28,0,0,0,.21,1.83,2.42,2.42,0,0,0,.75,1.1" transform="translate(-136.86 -13.22)"/><path class="cls-8" d="M555.21,115.45a2.42,2.42,0,0,0-1.23-.52,3.27,3.27,0,0,0-1.83.15,6.93,6.93,0,0,0-1.32,1l-.5.37c-.61.42-.75.37-.75.37a1.8,1.8,0,0,1-.71-3.53s.12-.1.84.05l.61.15a6.94,6.94,0,0,0,1.61.43,3.29,3.29,0,0,0,1.75-.57,2.42,2.42,0,0,0,.93-1" transform="translate(-136.86 -13.22)"/><path class="cls-8" d="M563.07,115.06a2.06,2.06,0,0,0-.07,1.13,2.79,2.79,0,0,0,.64,1.42,5.93,5.93,0,0,0,1.19.76l.44.29c.51.36.51.5.51.5a1.53,1.53,0,0,1-2.62,1.57s-.11-.06-.2-.69c0-.14,0-.32-.05-.53a5.94,5.94,0,0,0-.11-1.41,2.79,2.79,0,0,0-1-1.23,2.06,2.06,0,0,0-1-.47" transform="translate(-136.86 -13.22)"/><path class="cls-8" d="M565.1,109.55a1.57,1.57,0,0,0,.74.44,2.13,2.13,0,0,0,1.18.06,4.49,4.49,0,0,0,.94-.54l.35-.2c.43-.22.52-.17.52-.17a1.16,1.16,0,0,1,.14,2.32s-.08.05-.53-.11l-.37-.15a4.49,4.49,0,0,0-1-.42,2.12,2.12,0,0,0-1.17.21,1.57,1.57,0,0,0-.68.53" transform="translate(-136.86 -13.22)"/><path class="cls-8" d="M561,117.64a1.58,1.58,0,0,0-.52.69,2.13,2.13,0,0,0-.19,1.17,4.54,4.54,0,0,0,.44,1c.07.15.12.27.16.37.17.45.12.53.12.53a1.16,1.16,0,0,1-2.33-.1s0-.09.16-.52c0-.1.11-.22.19-.36a4.57,4.57,0,0,0,.52-.95,2.12,2.12,0,0,0-.08-1.18,1.56,1.56,0,0,0-.46-.73" transform="translate(-136.86 -13.22)"/><path class="cls-8" d="M556.46,116.43a1.38,1.38,0,0,0-.75.18,1.88,1.88,0,0,0-.79.7,4,4,0,0,0-.26.92c0,.14-.07.25-.1.35-.14.4-.22.43-.22.43a1,1,0,0,1-1.54-1.39s0-.09.41-.26l.33-.14a4,4,0,0,0,.9-.35A1.88,1.88,0,0,0,555,116a1.4,1.4,0,0,0,.1-.76" transform="translate(-136.86 -13.22)"/><path class="cls-8" d="M553.8,111.79a1.39,1.39,0,0,0-.5-.58,1.88,1.88,0,0,0-1-.38,4,4,0,0,0-.94.2l-.35.07c-.42.07-.48,0-.48,0a1,1,0,0,1,.52-2s.09,0,.42.24l.27.23a4.06,4.06,0,0,0,.73.63,1.88,1.88,0,0,0,1,.14,1.38,1.38,0,0,0,.72-.26" transform="translate(-136.86 -13.22)"/><path class="cls-8" d="M555.82,108.07a1.83,1.83,0,0,0-.06-1,2.47,2.47,0,0,0-.72-1.19,5.21,5.21,0,0,0-1.13-.55l-.42-.21c-.49-.27-.5-.39-.5-.39a1.36,1.36,0,0,1,2.15-1.66s.11,0,.25.59c0,.12.07.28.1.46a5.27,5.27,0,0,0,.25,1.24,2.49,2.49,0,0,0,1,1,1.84,1.84,0,0,0,1,.31" transform="translate(-136.86 -13.22)"/><path class="cls-8" d="M562.77,107.5a1.41,1.41,0,0,0,.78,0,1.92,1.92,0,0,0,1-.49,4.1,4.1,0,0,0,.48-.85l.19-.32c.23-.37.32-.37.32-.37a1.05,1.05,0,1,1,1.18,1.75s0,.08-.46.16l-.36.05a4,4,0,0,0-1,.13,1.92,1.92,0,0,0-.82.7,1.42,1.42,0,0,0-.29.73" transform="translate(-136.86 -13.22)"/><path class="cls-8" d="M561.54,106.66a.92.92,0,0,0,.44-.27,1.26,1.26,0,0,0,.36-.61,2.72,2.72,0,0,0,0-.64c0-.1,0-.17,0-.24,0-.29.05-.32.05-.32a.69.69,0,1,1,1.26.57s0,.06-.2.25l-.18.16a2.67,2.67,0,0,0-.5.41,1.26,1.26,0,0,0-.21.67.92.92,0,0,0,.09.5" transform="translate(-136.86 -13.22)"/><path class="cls-8" d="M554.46,109.32a.93.93,0,0,0-.16-.49,1.26,1.26,0,0,0-.51-.49,2.67,2.67,0,0,0-.63-.12l-.24,0c-.28-.07-.3-.12-.3-.12a.69.69,0,0,1,.84-1.1s.06,0,.2.26l.11.21a2.65,2.65,0,0,0,.28.58,1.26,1.26,0,0,0,.61.36.92.92,0,0,0,.51,0" transform="translate(-136.86 -13.22)"/><path class="cls-8" d="M557.56,107.46a.92.92,0,0,0,.13-.49,1.25,1.25,0,0,0-.15-.69,2.78,2.78,0,0,0-.46-.45l-.17-.17c-.19-.21-.18-.27-.18-.27a.69.69,0,1,1,1.31-.46s0,0,0,.32c0,.07,0,.14,0,.24a2.67,2.67,0,0,0-.08.64,1.26,1.26,0,0,0,.31.64.92.92,0,0,0,.41.31" transform="translate(-136.86 -13.22)"/><path class="cls-8" d="M557.85,117.45a1,1,0,0,0-.37.36,1.27,1.27,0,0,0-.22.67,2.7,2.7,0,0,0,.17.62c0,.09,0,.17.06.23.06.28,0,.32,0,.32a.69.69,0,1,1-1.36-.27s0-.06.14-.29l.14-.19a2.72,2.72,0,0,0,.39-.51,1.27,1.27,0,0,0,.06-.7.92.92,0,0,0-.2-.47" transform="translate(-136.86 -13.22)"/><path class="cls-8" d="M564.38,114.53a1.15,1.15,0,0,0,.29.56,1.55,1.55,0,0,0,.71.5,3.35,3.35,0,0,0,.79,0l.3,0c.35,0,.39.09.39.09a.85.85,0,1,1-.82,1.5s-.07,0-.29-.28l-.17-.24a3.36,3.36,0,0,0-.46-.65,1.56,1.56,0,0,0-.81-.33,1.16,1.16,0,0,0-.63.06" transform="translate(-136.86 -13.22)"/><path class="cls-8" d="M565.13,112.78a.84.84,0,0,0,.33.32,1.15,1.15,0,0,0,.61.17,2.48,2.48,0,0,0,.55-.17l.21-.06c.25-.06.29,0,.29,0a.62.62,0,0,1-.2,1.22s0,0-.26-.12l-.18-.12a2.31,2.31,0,0,0-.47-.34,1.12,1.12,0,0,0-.63,0,.81.81,0,0,0-.42.2" transform="translate(-136.86 -13.22)"/><path class="cls-4" d="M344.76,44.8c-.11-9.74-.37-19.48-.86-29.2l-.62,0c0,9.72-.23,19.44-.6,29.15s-.94,19.41-1.75,29.07-1.87,19.3-3.46,28.79c-.75,4.39-1.62,8.76-2.72,13,0-.32-.06-.65-.09-1A142.79,142.79,0,0,0,332,98.51q-.9-4-2.13-8A73.94,73.94,0,0,0,327,82.67a51.37,51.37,0,0,0-4.06-7.51,41.31,41.31,0,0,0-2.63-3.5,33.85,33.85,0,0,0-3.12-3.2,28,28,0,0,0-3.67-2.71,23.9,23.9,0,0,0-4.17-2l-1.1-.38L307,63l-.3-.08-.25-.05-.49-.1-.49-.1-.23,0-.14,0-.29,0a25.2,25.2,0,0,0-4.57-.29,33.1,33.1,0,0,0-8.73,1.49A50.25,50.25,0,0,0,283.58,67l-.89.47-.44.23-.5.28c-.61.35-1.23.68-1.83,1.05-1.21.72-2.39,1.47-3.54,2.27a79.56,79.56,0,0,0-6.62,5.08c-2.11,1.8-4.12,3.68-6.06,5.63-1,1-1.92,2-2.85,3l-1.4,1.52L258.12,88,263,92.34l1.33-1.49,1.31-1.42q1.33-1.43,2.7-2.81c1.83-1.84,3.72-3.6,5.67-5.27A72.62,72.62,0,0,1,280,76.69c1-.72,2.11-1.4,3.2-2.05.54-.34,1.09-.63,1.64-.94l.37-.21.44-.23.89-.46A43.8,43.8,0,0,1,293.43,70a26.68,26.68,0,0,1,7-1.21,18.86,18.86,0,0,1,3.41.22l.33,0,.49.1.49.1.24.05.18.05.73.21.79.27a18.44,18.44,0,0,1,5.78,3.51,27.25,27.25,0,0,1,2.46,2.53,34,34,0,0,1,2.17,2.9A44.88,44.88,0,0,1,321,85.31a67.51,67.51,0,0,1,2.67,7.15,70.15,70.15,0,0,1,2.2,11.42,53.11,53.11,0,0,1,.5,10.53,37.86,37.86,0,0,1-5.88,18.07,61.15,61.15,0,0,1-6.84,9A80.24,80.24,0,0,1,305.5,149c-2.54,2-5,4.08-7.52,6.16a29.24,29.24,0,0,1-11.32-2.75c11.24-17.11,7-33.21,7-33.21a36.28,36.28,0,0,1-3.3,19.27c.36-12.64-4-19.82-4-19.82a65.41,65.41,0,0,1,2.14,16.22c-4.92-1.46-12.87-10.52-12.87-10.52s5,9.61,12.84,13A55.38,55.38,0,0,1,288,143a44.82,44.82,0,0,1-5.34,7.23c-4.83-3-10.14-7.71-15.28-15.2,0,0,5.23,19.68,27.22,23A144.19,144.19,0,0,0,282,170.15c-8.69-.35-17.53,2.3-25.23,5.8a46.17,46.17,0,0,0-18.41-1.45s11.83-.81,15.7,2.73a109.09,109.09,0,0,0-20.59,13.33,70.89,70.89,0,0,1,30.34-13.63,127.82,127.82,0,0,1-9,14s-11.05.66-22.75,9.56c0,0,13-5.44,19.77-5.68-6.22,7.76-14.42,15.95-24.13,20.88a73.5,73.5,0,0,0,15.59-9.5c-.72,3.31-4.62,16.2-22.75,25.57,0,0,21.9-7.52,27-29.08a85.23,85.23,0,0,0,20.36-26.47,75.59,75.59,0,0,1,9.6-.77c-.59.75-1.17,1.5-1.74,2.28-4.31,5.85-8.17,12.37-10.33,19.35a42.83,42.83,0,0,0-1.64,12.63c-4.89.95-16.52,5-25.33,22.09-3.55.25-13.85,2.18-22.65,15.52,0,0,12.67-12.2,20.86-11.76q-.57,1.3-1.12,2.68S227.9,258,215,263.93c0,0,13.64-4.54,23.93-25.5,0,0,4.36-10.23,11.37-17.3.78,4.88,2.31,17.17-.4,24.59C252.09,241,255,232,253.8,218a15.92,15.92,0,0,1,10.12-3.5c.06,1.61.13,3.23.18,4.84.56,16.26-4.47,32.07-12.28,46.25-6.76,1-27.16,4.74-40,14.54,0,0,23.5-10.21,36.21-8.15q-2.06,3.27-4.29,6.4a204,204,0,0,1-21.33,25.44c4.51-4.55,10.25-8.12,15-12.53a154.74,154.74,0,0,0,14-15c8.51-10.39,15.33-21.63,17.74-35,2.36-13.14,0-27.19,4.15-40A61.27,61.27,0,0,1,279.55,188a29.15,29.15,0,0,0,.58,4.46,61.43,61.43,0,0,0,5.24,14.5c.32.68.67,1.37,1,2.06-8.91,11.81-5.76,23.61-5.76,23.61-.58-7.34,5.6-16.92,7.8-20.08,1.56,2.58,3.29,5.2,4.88,7.69a87.83,87.83,0,0,1-.27,15.46c-11.73,5.56-15,17.36-15,17.36,4.16-7.66,11.22-12.13,14.57-13.93-1.62,10.4-5.75,22-15.62,28.95,0,0,5.34-2.15,10.42-9.2a54.29,54.29,0,0,1,8.1,31.91c4-12.5-3.78-31-5.81-35.49,3.7-6.53,6.76-16.13,6.73-30,2.33,4.15,4,8.22,6.05,12.56,3.15,6.73,5,14,6.82,21.17.83-8.51-1.62-17.35-4.81-25.16-5.14-12.6-16.27-22.35-19.6-36.89a57.21,57.21,0,0,1-1.57-14.46,82.57,82.57,0,0,1,7.52-8.57,56.31,56.31,0,0,1,8.07-6.56c-3.73,9.59-12.55,38.18,7.6,53.43-4.62-3.5-9.12-12.74-10.09-18.15-1.2-6.69-.48-10.39.33-17.16,0-.33.09-.65.14-1,.9,6.88,3.51,18.63,11,24.49a62.5,62.5,0,0,1-6.52-15.15,40.81,40.81,0,0,0,8.08,5.22s-7-5.74-9.76-13.25a45.55,45.55,0,0,1-.12-11.47c1.13-3.22,2.41-6.45,3.55-9.71,3.93-2.42,8-4.68,11.93-7.25,10.3-6.71,17.45-17.49,21.84-28.81A71,71,0,0,0,340.08,118c1-4.89,1.77-9.77,2.35-14.66,1.14-9.77,1.7-19.53,2-29.29S344.86,54.54,344.76,44.8Z" transform="translate(-136.86 -13.22)"/><path class="cls-4" d="M249.87,245.71a20.51,20.51,0,0,1-2.28,3.89A10.9,10.9,0,0,0,249.87,245.71Z" transform="translate(-136.86 -13.22)"/><path class="cls-4" d="M295.69,93.77H251.06a3.24,3.24,0,1,1,0-6.49h44.62a3.24,3.24,0,0,1,0,6.49Z" transform="translate(-136.86 -13.22)"/><path class="cls-4" d="M196.69,174.52H174.11a3.24,3.24,0,1,1,0-6.49h22.57a3.24,3.24,0,1,1,0,6.49Z" transform="translate(-136.86 -13.22)"/><path class="cls-4" d="M222,174.52h-9.6a3.24,3.24,0,0,1,0-6.49H222a3.24,3.24,0,0,1,0,6.49Z" transform="translate(-136.86 -13.22)"/><path class="cls-4" d="M270.14,113.66h-9.6a3.24,3.24,0,1,1,0-6.49h9.6a3.24,3.24,0,1,1,0,6.49Z" transform="translate(-136.86 -13.22)"/><circle class="cls-4" cx="279.84" cy="247.5" r="5.84"/><circle class="cls-4" cx="128.48" cy="144.84" r="5.84"/><circle class="cls-10" cx="430.28" cy="247.5" r="32.46"/><circle class="cls-11" cx="317.71" cy="99.21" r="32.46"/><circle class="cls-12" cx="312.83" cy="22.2" r="22.2"/><circle class="cls-13" cx="224.28" cy="290.95" r="27.32"/><circle class="cls-14" cx="385.44" cy="47.98" r="36.83"/><circle class="cls-15" cx="13.65" cy="178.64" r="13.65"/><circle class="cls-16" cx="292.68" cy="255.72" r="65.81"/><circle class="cls-17" cx="220.86" cy="175.26" r="15.65"/><circle class="cls-18" cx="134.32" cy="267.48" r="11.75"/><circle class="cls-19" cx="172.27" cy="45.52" r="15.6"/><circle class="cls-20" cx="34.01" cy="309.25" r="18.59"/></g></g></g></svg>